<?xml version="1.0" standalone="no"?>
<!DOCTYPE svg PUBLIC "-//W3C//DTD SVG 20010904//EN"
 "http://www.w3.org/TR/2001/REC-SVG-20010904/DTD/svg10.dtd">
<svg version="1.0" xmlns="http://www.w3.org/2000/svg"
 width="488.000000pt" height="148.000000pt" viewBox="0 0 488.000000 148.000000"
 preserveAspectRatio="xMidYMid meet">

<g transform="translate(0.000000,148.000000) scale(0.100000,-0.100000)"
fill="#000000" stroke="none">
<path d="M3815 1156 c-8 -19 -19 -56 -25 -83 -25 -113 -51 -182 -70 -188 -12
-4 -22 -21 -29 -53 -10 -49 -7 -67 11 -56 6 4 8 -1 5 -12 -3 -11 -8 -30 -12
-43 -5 -17 -4 -22 6 -19 7 2 18 22 24 44 7 30 14 39 27 36 25 -5 33 -46 19
-105 -11 -47 -8 -80 4 -43 3 9 7 23 10 31 3 12 14 14 45 9 37 -6 41 -4 57 25
23 39 40 45 69 26 16 -10 24 -25 24 -44 0 -36 28 -61 69 -61 26 0 31 -3 27
-17 -7 -23 -47 -171 -53 -201 -6 -27 -17 -27 -113 -2 -87 23 -90 23 -90 11 0
-5 15 -12 33 -16 17 -4 63 -16 100 -27 38 -10 70 -18 72 -16 5 4 51 175 72
266 15 63 28 74 62 53 12 -8 7 -37 -29 -183 -23 -95 -47 -177 -51 -182 -5 -6
-44 0 -101 16 -94 26 -217 59 -296 78 -43 11 -44 12 -38 46 4 19 3 34 -2 34
-13 0 -26 -71 -15 -80 22 -18 452 -125 462 -114 4 5 25 74 46 154 47 182 50
188 65 127 7 -26 16 -49 20 -52 12 -7 22 225 11 239 -7 8 -4 36 10 86 12 47
17 89 13 113 -5 33 -9 37 -35 37 -22 0 -29 5 -29 20 0 10 7 23 16 28 12 7 14
14 6 28 -5 10 -10 24 -10 29 0 6 -29 17 -64 27 -35 9 -107 28 -162 42 -131 35
-144 34 -161 -8z m214 -26 c82 -22 152 -40 155 -40 10 0 6 -36 -5 -47 -20 -20
-6 -57 28 -73 26 -12 33 -21 33 -45 0 -47 -36 -151 -52 -147 -7 2 -92 24 -188
48 -236 60 -242 62 -236 82 3 10 17 62 31 117 33 129 41 145 64 145 11 0 87
-18 170 -40z m-45 -320 c126 -32 232 -63 235 -68 3 -6 4 -43 2 -83 l-4 -74
-16 49 c-19 53 -44 72 -84 62 -13 -3 -29 -17 -35 -31 -10 -22 -18 -26 -44 -23
-29 3 -33 7 -39 41 -7 42 -22 61 -57 72 -18 5 -30 -1 -56 -29 -18 -20 -40 -36
-48 -36 -25 0 -48 29 -48 60 0 31 -30 60 -62 60 -20 0 -21 4 -12 38 4 12 14
22 23 22 9 0 119 -27 245 -60z"/>
<path d="M3851 1128 c-5 -13 -12 -37 -15 -55 -7 -31 -7 -31 51 -48 32 -10 73
-18 92 -19 31 -1 34 2 47 43 7 25 11 48 9 51 -7 11 -91 32 -111 28 -12 -3 -1
-10 34 -22 41 -14 52 -22 52 -39 0 -45 -11 -49 -88 -31 -40 9 -72 20 -72 24 0
19 23 70 32 70 5 0 6 5 3 10 -10 17 -25 11 -34 -12z"/>
<path d="M4052 1040 c-7 -29 -11 -54 -10 -55 9 -5 88 -25 101 -25 12 0 15 7
10 34 -3 18 0 43 6 54 13 25 7 30 -51 38 l-44 6 -12 -52z m74 22 c6 -4 9 -23
7 -43 -4 -33 -7 -35 -35 -31 -35 5 -42 19 -29 55 10 26 34 35 57 19z"/>
<path d="M3806 963 c-7 -27 -11 -51 -7 -55 8 -8 143 -48 164 -48 22 0 45 99
26 111 -12 7 -141 39 -160 39 -5 0 -15 -21 -23 -47z m114 8 c52 -16 55 -19 52
-47 -2 -16 -6 -32 -10 -36 -4 -4 -37 1 -74 10 -59 14 -68 19 -68 38 0 58 13
63 100 35z"/>
<path d="M4026 951 c-3 -5 -9 -30 -12 -55 -6 -42 -5 -46 17 -54 53 -20 81 -23
77 -10 -3 7 -24 16 -47 21 -32 6 -41 12 -37 24 3 8 9 26 12 40 4 13 12 22 18
20 7 -3 40 -13 75 -22 59 -17 62 -19 56 -44 -3 -14 -14 -32 -23 -39 -14 -11
-15 -14 -2 -22 8 -5 17 -7 21 -5 11 8 30 98 22 106 -4 4 -37 15 -73 24 -36 9
-72 18 -82 21 -9 3 -19 1 -22 -5z"/>
<path d="M3600 1116 c0 -8 5 -18 10 -21 6 -3 10 3 10 14 0 12 -4 21 -10 21 -5
0 -10 -6 -10 -14z"/>
<path d="M3550 1092 c0 -5 7 -13 16 -16 10 -4 14 -1 12 6 -5 15 -28 23 -28 10z"/>
<path d="M3645 1090 c-3 -5 1 -10 9 -10 8 0 18 5 21 10 3 6 -1 10 -9 10 -8 0
-18 -4 -21 -10z"/>
<path d="M3560 1040 c-8 -5 -11 -12 -7 -16 4 -4 13 -2 19 4 15 15 7 24 -12 12z"/>
<path d="M3640 1041 c0 -5 7 -12 16 -15 24 -9 28 -7 14 9 -14 17 -30 20 -30 6z"/>
<path d="M3605 1017 c-4 -10 -5 -21 -1 -24 10 -10 18 4 13 24 -4 17 -4 17 -12
0z"/>
<path d="M3552 930 c0 -14 2 -19 5 -12 2 6 2 18 0 25 -3 6 -5 1 -5 -13z"/>
<path d="M1095 920 c-7 -11 21 -39 38 -40 4 0 7 -68 7 -150 l0 -150 -25 -12
c-14 -6 -25 -17 -25 -25 0 -11 14 -13 63 -11 l62 3 3 113 3 112 49 0 c61 0 70
-14 70 -102 0 -67 -4 -77 -33 -93 -35 -19 -22 -30 41 -33 l62 -3 0 116 c0 64
-5 125 -11 136 -17 33 -51 39 -114 23 -31 -8 -59 -13 -62 -10 -3 2 -5 33 -6
68 l-2 63 -57 3 c-34 2 -59 -2 -63 -8z"/>
<path d="M3040 915 c0 -8 11 -21 25 -27 l25 -11 0 -149 0 -148 -25 -12 c-14
-6 -25 -17 -25 -25 0 -17 116 -19 122 -1 3 9 15 9 49 -1 63 -18 101 -12 116
19 16 31 17 193 2 221 -17 32 -51 39 -105 23 -26 -8 -51 -14 -55 -14 -5 0 -9
30 -11 68 l-3 67 -57 3 c-47 2 -58 0 -58 -13z m218 -167 c16 -16 16 -140 0
-156 -7 -7 -31 -12 -55 -12 l-43 0 0 90 0 90 43 0 c24 0 48 -5 55 -12z"/>
<path d="M3500 912 c0 -5 7 -13 16 -16 10 -4 14 -1 12 6 -5 15 -28 23 -28 10z"/>
<path d="M3587 913 c-12 -12 -7 -22 8 -17 8 4 15 10 15 15 0 11 -14 12 -23 2z"/>
<path d="M794 889 c-17 -19 -19 -38 -19 -171 0 -191 -3 -188 156 -188 l109 0
0 55 c0 63 -18 75 -37 25 -11 -31 -13 -31 -75 -28 l-63 3 0 135 0 135 63 3 62
3 0 -36 c0 -28 4 -35 19 -35 15 0 20 10 26 46 3 26 9 53 12 60 4 10 -4 14 -25
14 -17 0 -32 -5 -34 -11 -3 -8 -20 -8 -63 0 -84 16 -109 14 -131 -10z"/>
<path d="M2350 897 c0 -7 14 -18 30 -24 l30 -11 0 -142 0 -141 -30 -10 c-16
-6 -30 -17 -30 -25 0 -11 31 -14 170 -14 l170 0 0 55 c0 63 -21 76 -39 25
l-10 -31 -73 3 -73 3 -3 163 -2 162 -70 0 c-50 0 -70 -4 -70 -13z"/>
<path d="M3505 860 c-3 -5 1 -10 9 -10 9 0 16 5 16 10 0 6 -4 10 -9 10 -6 0
-13 -4 -16 -10z"/>
<path d="M3585 860 c3 -5 11 -10 16 -10 6 0 7 5 4 10 -3 6 -11 10 -16 10 -6 0
-7 -4 -4 -10z"/>
<path d="M3552 840 c0 -14 2 -19 5 -12 2 6 2 18 0 25 -3 6 -5 1 -5 -13z"/>
<path d="M1469 789 c-19 -19 -20 -30 -17 -126 4 -130 7 -133 125 -133 116 0
123 8 123 140 0 133 -7 140 -125 140 -73 0 -88 -3 -106 -21z m149 -31 c7 -7
12 -42 12 -88 0 -85 -8 -100 -55 -100 -47 0 -55 15 -55 100 0 46 5 81 12 88
16 16 70 16 86 0z"/>
<path d="M1780 790 c-17 -17 -20 -33 -20 -120 0 -134 6 -140 130 -140 l90 0 0
50 c0 57 -12 64 -30 20 -11 -27 -17 -30 -54 -30 -23 0 -47 5 -54 12 -7 7 -12
43 -12 90 0 73 1 78 24 84 13 3 37 4 52 2 23 -2 30 -9 32 -30 2 -16 10 -28 17
-28 19 0 22 7 30 63 7 46 6 47 -18 47 -14 0 -27 -5 -29 -12 -4 -10 -13 -10
-45 0 -58 17 -90 15 -113 -8z"/>
<path d="M2060 790 c-17 -17 -20 -33 -20 -120 0 -133 7 -140 125 -140 118 0
125 7 125 140 0 133 -7 140 -125 140 -72 0 -88 -3 -105 -20z m148 -32 c7 -7
12 -42 12 -88 0 -85 -8 -100 -55 -100 -47 0 -55 15 -55 100 0 46 5 81 12 88
16 16 70 16 86 0z"/>
<path d="M2780 765 c0 -50 14 -59 32 -20 9 19 19 25 44 25 54 0 64 -8 64 -52
0 -33 -3 -39 -16 -34 -9 3 -39 9 -67 12 -74 8 -92 -8 -92 -79 0 -82 7 -86 136
-85 l109 1 0 118 c0 154 -4 159 -125 159 l-85 0 0 -45z m140 -150 l0 -45 -43
0 c-47 0 -67 13 -67 45 0 32 20 45 67 45 l43 0 0 -45z"/>
<path d="M3510 663 c-32 -41 -25 -65 33 -122 28 -28 57 -51 62 -51 6 0 33 22
60 50 37 38 48 56 48 81 0 49 -28 66 -112 67 -64 0 -73 -2 -91 -25z m176 -19
c19 -28 11 -44 -45 -99 l-41 -39 -45 44 c-45 44 -58 83 -34 107 5 5 42 10 80
10 62 0 72 -3 85 -23z"/>
<path d="M3534 635 c-7 -18 2 -45 14 -45 5 0 9 14 9 30 0 32 -14 40 -23 15z"/>
<path d="M3858 593 c-15 -63 -16 -84 -2 -71 5 5 33 113 34 131 0 4 -4 7 -8 7
-5 0 -15 -30 -24 -67z"/>
<path d="M3966 599 c-31 -90 -45 -173 -27 -153 12 13 45 154 37 161 -3 3 -8 0
-10 -8z"/>
<path d="M3699 549 c-18 -18 -20 -28 -14 -72 4 -29 10 -55 14 -59 3 -3 30 -2
59 4 86 17 94 63 20 118 -50 36 -52 36 -79 9z m75 -31 c56 -36 43 -78 -25 -78
-40 0 -49 11 -49 59 0 48 20 53 74 19z"/>
</g>
</svg>
